# File produced by Open Asset Import Library (http://www.assimp.sf.net)
# (assimp v5.0.1588609223)

mtllib result.mtl

# 140 vertex positions
v  -0.1064868 3.6146355 -0.075449705
v  -0.058429778 3.8871808 -0.14081812
v  -0.056994088 3.8953235 -0.20611362
v  -0.098101132 3.6621928 -0.32987696
v  -0.12146109 3.5297115 -0.19000795
v  -0.11914601 3.5428412 -0.24918309
v  0.0072512031 3.9589982 -0.20913723
v  0.0072511872 3.9470453 -0.11609037
v  0.0072512277 3.6581414 -0.36642793
v  0.0072511756 3.5967703 -0.043076277
v  0.0072512119 3.5041189 -0.26387414
v  0.0072511993 3.4871747 -0.18866833
v  -0.056994151 3.8953214 0.20103942
v  -0.058429826 3.8871808 0.13574417
v  -0.10648683 3.6146355 0.070375755
v  -0.098101236 3.6621928 0.32480299
v  -0.12146115 3.5297134 0.18493374
v  -0.11914609 3.5428412 0.24410914
v  0.0072511351 3.9589982 0.20406274
v  0.0072511504 3.9470453 0.11101615
v  0.0072511099 3.6581414 0.36135373
v  0.0072511625 3.5967681 0.038002323
v  0.0072511262 3.5041189 0.25879991
v  0.0072511388 3.4871747 0.18359385
v  0.071496487 3.8953235 -0.20611362
v  0.072932146 3.8871808 -0.14081812
v  0.12098916 3.6146355 -0.075449705
v  0.11260356 3.6621928 -0.32987696
v  0.13596351 3.5297115 -0.19000795
v  0.13364844 3.5428412 -0.24918309
v  0.12098914 3.6146355 0.070375755
v  0.072932117 3.8871808 0.13574417
v  0.071496412 3.8953214 0.20103942
v  0.11260345 3.6621928 0.32480299
v  0.13596345 3.5297134 0.18493374
v  0.13364837 3.5428412 0.24410914
v  0.096580744 3.6216264 0.15880369
v  0.096580796 3.6218152 -0.16451912
v  0.064579748 3.8844595 -0.14048636
v  0.064579703 3.8843 0.13376883
v  0.04730631 3.8844595 -0.14048636
v  0.047306258 3.8843 0.13376883
v  0.079307303 3.6216264 0.15880369
v  0.079307355 3.6218152 -0.16451912
v  -0.050077427 3.8844595 -0.14048636
v  -0.082078397 3.6218152 -0.16451912
v  -0.082078449 3.6216264 0.15880369
v  -0.050077472 3.8843 0.13376883
v  -0.032804038 3.8843 0.13376883
v  -0.032803994 3.8844595 -0.14048636
v  -0.064804956 3.6218152 -0.16451912
v  -0.064805008 3.6216264 0.15880369
v  -0.076722138 4.3283134 -0.030068947
v  -0.076722145 4.3283134 0.025768662
v  -0.042921096 4.4603686 0.053898454
v  -0.042921081 4.4603686 -0.057776239
v  -0.12309944 3.7982178 -0.17867358
v  -0.084429651 3.766201 -0.1178323
v  -0.047434758 4.189055 -0.0023920776
v  -0.12321247 3.7969253 0.19219048
v  -0.079570748 3.8217394 0.25280517
v  -0.0794577 3.8230298 -0.23954581
v  -0.084542647 3.7649086 0.13154459
v  0.057423171 4.4603686 0.053898454
v  0.091224268 4.3283134 0.025768662
v  0.091224276 4.3283134 -0.030068947
v  0.057423182 4.4603686 -0.057776239
v  0.061936922 4.189055 -0.0023920776
v  0.098932013 3.766201 -0.1178323
v  0.13760179 3.7982178 -0.17867358
v  0.09407296 3.8217394 0.25280517
v  0.13771471 3.7969253 0.19219048
v  0.093960062 3.8230298 -0.23954581
v  0.099044926 3.7649086 0.13154459
v  0.0072520995 4.0757751 0.18328674
v  0.0072520883 3.9493847 0.34810457
v  -0.057444859 4.4177651 0.21296519
v  -0.052513458 12.732457 -0.002536583
v  -0.053544756 7.8731074 -0.0025371076
v  0.0072514997 7.8727756 0.10044549
v  0.0072506964 12.732017 0.10044549
v  0.0072504124 14.401554 0.20395759
v  -0.19894119 14.34616 -0.0025371076
v  -0.061201643 14.037159 -0.0025371076
v  0.0072504953 14.036399 0.082616232
v  -0.061201528 13.846557 -0.0025371076
v  -0.10371128 13.187913 -0.002536583
v  0.0072506103 13.187367 0.23870447
v  0.0072505265 13.845906 0.082616232
v  -0.11419217 14.771261 0.12896395
v  -0.12070772 15.178088 -0.0025371076
v  0.0072503295 14.831065 0.32527062
v  0.0072502429 15.428742 0.18079475
v  0.007250194 15.975657 -0.0025371076
v  0.0072503937 14.326102 0.41439772
v  -0.10184151 7.1714072 -0.0025371076
v  -0.135098 4.8862314 -0.0025371076
v  0.0072519686 4.886066 0.20694552
v  0.0072515919 7.1711578 0.20583773
v  -0.011491378 4.4178071 -0.0025371076
v  -0.030124741 4.0873923 -0.0025371076
v  -0.030576792 3.3690045 -0.0025371076
v  0.0072522177 3.3678882 0.13040376
v  0.0072525069 1.7638909 -0.0025371076
v  0.0072519951 4.4177251 0.43513754
v  0.0072504198 14.213449 0.34511769
v  0.0072521595 4.0757751 -0.18836069
v  -0.057444785 4.4177651 -0.21803939
v  0.0072522014 3.9493847 -0.3531788
v  0.0072515323 7.8727756 -0.10551997
v  0.0072507299 12.732017 -0.10551997
v  0.0072504794 14.401554 -0.20903233
v  0.0072505223 14.036399 -0.087690711
v  0.0072506894 13.187367 -0.24377842
v  0.0072505539 13.845906 -0.087690189
v  -0.11419213 14.771261 -0.13403843
v  0.0072504361 14.831065 -0.33034456
v  0.0072503029 15.428742 -0.18586974
v  0.0072505297 14.326102 -0.41947222
v  0.0072520375 4.886066 -0.21201947
v  0.0072516594 7.1711578 -0.21091221
v  0.0072522606 3.3678882 -0.13547771
v  0.0072521376 4.4177251 -0.44021201
v  0.007250533 14.213449 -0.35019216
v  0.071948931 4.4177651 0.21296519
v  0.068047769 7.8731074 -0.0025371076
v  0.06701488 12.732457 -0.002536583
v  0.075702652 14.037159 -0.0025371076
v  0.21344212 14.34616 -0.0025371076
v  0.11821257 13.187913 -0.002536583
v  0.075702615 13.846557 -0.0025371076
v  0.12869291 14.771261 0.12896395
v  0.13520837 15.178088 -0.0025371076
v  0.149602 4.8862314 -0.0025371076
v  0.11634474 7.1714072 -0.0025371076
v  0.02599553 4.4178071 -0.0025371076
v  0.045081265 3.3690045 -0.0025371076
v  0.044629 4.0873923 -0.0025371076
v  0.071949005 4.4177651 -0.21803939
v  0.12869295 14.771261 -0.13403843

# 67 UV coordinates
vt 0.58313119 0.25603962 0
vt 0.56452066 0.29470003 0
vt 0.55461323 0.29365134 0
vt 0.54417133 0.25429893 0
vt 0.56846774 0.24248195 0
vt 0.56123847 0.24223447 0
vt 0.5494104 0.30626237 0
vt 0.56794077 0.30821419 0
vt 0.52953875 0.25007808 0
vt 0.59887207 0.25359511 0
vt 0.55581141 0.22370279 0
vt 0.57600623 0.22440934 0
vt 0.97977406 0.0071530342 0
vt 0.93574315 0.0071787834 0
vt 0.93901622 0.043210864 0
vt 0.97636515 0.043189049 0
vt 0.93901771 0.045563221 0
vt 0.97636652 0.045541406 0
vt 0.97977269 0.0048005581 0
vt 0.93574166 0.0048264265 0
vt 0.78870612 0.4025141 0
vt 0.78870797 0.3931886 0
vt 0.80444539 0.38852954 0
vt 0.80444175 0.40718031 0
vt 0.72595429 0.42727923 0
vt 0.72236264 0.41716266 0
vt 0.77241921 0.3979255 0
vt 0.72581351 0.36534131 0
vt 0.72894865 0.35526812 0
vt 0.72908551 0.43749571 0
vt 0.7222178 0.37551415 0
vt 0.59248239 0.5661363 0
vt 0.60275751 0.55790997 0
vt 0.59498864 0.5880577 0
vt 0.56171817 0.79161668 0
vt 0.56168199 0.45095289 0
vt 0.57073486 0.45092952 0
vt 0.57073462 0.7915864 0
vt 0.52863431 0.61885542 0
vt 0.55370557 0.61685956 0
vt 0.55370557 0.58370769 0
vt 0.54088944 0.58322364 0
vt 0.55370557 0.56462449 0
vt 0.55370557 0.49935615 0
vt 0.52741235 0.49926698 0
vt 0.54090184 0.56463975 0
vt 0.55370557 0.45406389 0
vt 0.53963941 0.4539305 0
vt 0.53758562 0.65698016 0
vt 0.55370557 0.69866097 0
vt 0.51441246 0.66217834 0
vt 0.5281207 0.7218973 0
vt 0.55370557 0.77762204 0
vt 0.50680691 0.61278844 0
vt 0.5851928 0.76293194 0
vt 0.5851928 0.61858267 0
vt 0.59847778 0.61801547 0
vt 0.60194904 0.76272643 0
vt 0.5851928 0.80732262 0
vt 0.59610289 0.80731863 0
vt 0.5851928 0.58797199 0
vt 0.5851928 0.56691611 0
vt 0.5851928 0.54607022 0
vt 0.58956331 0.54599792 0
vt 0.5851928 0.5252161 0
vt 0.60954803 0.58707529 0
vt 0.5129354 0.60185272 0

# 182 vertex normals
vn -0.98480773 0.17364827 -4.8110491e-07
vn -0.98480779 0.17364824 -1.0434123e-06
vn -0.98480773 0.1736483 8.1202529e-08
vn 8.2894189e-08 0.99336106 0.11503913
vn -0.69496357 0.71427119 0.082718201
vn 6.3896302e-08 0.48607209 -0.87391883
vn -0.36030605 0.45342457 -0.81522125
vn 1.6287938e-08 0.2687763 0.96320271
vn -0.40377402 0.24589238 0.88119447
vn 0 -0.81700915 -0.57662481
vn -0.31131327 -0.77640975 -0.54797083
vn -0.27423614 -0.52042741 -0.80867171
vn 3.0990421e-08 -0.54117477 -0.8409102
vn -3.1308204e-08 -0.97455513 -0.22414815
vn -0.30640465 -0.92768031 -0.21336697
vn -4.6483727e-08 -0.79165196 0.6109724
vn -0.27409753 -0.76133323 0.58757323
vn -0.98480791 0.17364742 2.4931894e-06
vn -0.98480785 0.17364755 1.6560755e-06
vn -0.98480785 0.17364769 8.1896144e-07
vn -0.69496232 0.71427375 -0.082706645
vn 4.1447024e-08 0.9933629 -0.11502253
vn -0.36030644 0.45342594 0.81522048
vn 3.1948154e-08 0.48607352 0.873918
vn -0.40377232 0.24589051 -0.88119566
vn 8.1439623e-08 0.26877409 -0.96320325
vn -0.27423507 -0.52042693 0.80867237
vn -0.31131351 -0.77641159 0.54796803
vn 8.4071141e-09 -0.81701118 0.57662201
vn 0 -0.54117399 0.84091061
vn -0.30640519 -0.92768186 0.21335936
vn 1.5654106e-08 -0.97455692 0.22414033
vn -0.27409881 -0.76133609 -0.58756888
vn -1.5494582e-08 -0.79165536 -0.61096805
vn 0.98480779 0.17364825 -7.386642e-07
vn 0.98480773 0.17364845 -1.7208038e-07
vn 0.98480773 0.17364863 3.9450345e-07
vn 0.69496369 0.71427113 0.082718402
vn 0.36030617 0.4534246 -0.81522119
vn 0.40377399 0.2458923 0.88119435
vn 0.2742362 -0.52042741 -0.80867171
vn 0.31131327 -0.77640975 -0.54797077
vn 0.30640459 -0.92768037 -0.21336687
vn 0.27409747 -0.76133323 0.58757335
vn 0.98480785 0.17364769 2.0596622e-06
vn 0.98480791 0.17364743 2.8912298e-06
vn 0.98480779 0.17364794 1.2280946e-06
vn 0.69496238 0.71427375 -0.082706362
vn 0.36030647 0.45342585 0.81522036
vn 0.40377253 0.24589059 -0.88119566
vn 0.31131354 -0.77641153 0.54796809
vn 0.27423507 -0.52042687 0.80867237
vn 0.30640522 -0.92768186 0.21335953
vn 0.27409878 -0.76133609 -0.58756888
vn 0.99265975 0.12094074 7.0474038e-05
vn 0 0.99999982 0.00058018428
vn 0 -0.99999982 -0.0005824641
vn -0.99265981 0.12094047 7.0135669e-05
vn 0 0.99999988 0.00058018428
vn 0 -0.99999982 -0.00058246416
vn -0.99882281 0.043572146 0.021318158
vn -0.99890393 0.042521324 -0.019571308
vn -0.94845921 0.22819781 0.21988834
vn -0.94815499 0.22343662 -0.22600532
vn -0.99665177 0.068125688 0.045212235
vn -0.85215116 -0.06899105 0.5187279
vn -0.99129719 -0.13148607 0.0064281113
vn -0.99697918 0.065741554 -0.041358743
vn -0.88152939 0.197212 0.42896795
vn -0.87813747 0.18726416 -0.44023487
vn -0.86136937 -0.082283922 -0.50127041
vn 0.94845915 0.22819825 0.21988831
vn 0.99890387 0.042521708 -0.019571172
vn 0.99882281 0.043572582 0.021318225
vn 0.94815475 0.22343709 -0.22600545
vn 0.99129719 -0.13148572 0.0064283959
vn 0.8521511 -0.06899073 0.51872808
vn 0.99665183 0.06812612 0.045212273
vn 0.88152927 0.19721228 0.42896813
vn 0.99697924 0.065741889 -0.041358579
vn 0.87813735 0.18726458 -0.44023499
vn 0.86136961 -0.082283624 -0.50127029
vn -0.97095937 -0.16898666 -0.1693565
vn -0.99051028 -0.11518397 0.074980579
vn -0.99369788 -0.10687213 0.033808116
vn -0.8743031 -0.055774424 0.48216522
vn -0.86792344 0.034337971 0.49550971
vn -0.88870925 -0.27820483 0.36441481
vn -0.80604506 -0.082414053 0.58608824
vn -0.74820966 -0.12362795 0.65184236
vn -0.81524664 0.05200424 0.57677436
vn -0.8697179 -0.003903924 0.49353367
vn -0.94561714 -0.049141549 0.32154834
vn -0.90458584 0.12026334 0.40897605
vn -0.86501378 0.10847944 0.48988113
vn -0.88195866 0.13560621 0.45139763
vn -0.89271277 0.14322226 0.4272604
vn -0.93114561 -0.020585939 0.36406609
vn -0.86533427 0.037363335 0.49980068
vn -0.9641819 -0.040819362 0.26208243
vn -0.88022 0.067962177 0.46967429
vn -0.95672566 -0.20745879 -0.20405111
vn -0.99969566 0.024672613 2.6735824e-08
vn -0.99988216 -0.015357859 3.8528707e-08
vn -0.96699232 -0.014852684 0.2543726
vn -0.97568852 0.024080111 0.21783535
vn -0.99972248 -0.02356142 6.1966311e-08
vn -0.93463606 0.039016727 0.35345897
vn -0.95355576 -0.26388419 -0.14524692
vn -0.99146307 -0.077971868 0.10450597
vn -0.99693358 -0.074208364 -0.024832401
vn -0.99369788 -0.10687215 -0.033808563
vn -0.99051028 -0.11518407 -0.074980699
vn -0.86792415 0.034337945 -0.49550849
vn -0.87430429 -0.055774301 -0.48216313
vn -0.74821067 -0.12362826 -0.65184116
vn -0.80604583 -0.08241412 -0.58608717
vn -0.8887096 -0.2782048 -0.36441389
vn -0.86971849 -0.0039038758 -0.49353266
vn -0.81524706 0.052003745 -0.57677382
vn -0.94561714 -0.04914153 -0.32154837
vn -0.86501342 0.10847971 -0.48988172
vn -0.90458614 0.12026337 -0.40897521
vn -0.88195914 0.13560624 -0.45139697
vn -0.89271355 0.14322238 -0.42725864
vn -0.93114537 -0.020585619 -0.36406684
vn -0.88022 0.067962348 -0.46967435
vn -0.96418184 -0.040819246 -0.2620827
vn -0.86533439 0.037363306 -0.49980044
vn -0.96699232 -0.014852679 -0.25437254
vn -0.93463588 0.039016854 -0.35345939
vn -0.95355576 -0.26388425 0.14524664
vn 0.99693358 -0.074207999 0.024832638
vn 0.99369788 -0.10687184 0.033808444
vn 0.99051028 -0.11518367 0.074980929
vn 0.86792338 0.034338236 0.49550986
vn 0.87430304 -0.055774134 0.48216537
vn 0.7482096 -0.1236277 0.65184247
vn 0.80604494 -0.082413778 0.58608848
vn 0.88870913 -0.27820456 0.36441505
vn 0.86971784 -0.0039036432 0.49353388
vn 0.81524652 0.052004505 0.57677448
vn 0.94561714 -0.049141265 0.32154861
vn 0.86501366 0.10847971 0.48988131
vn 0.90458566 0.12026363 0.40897629
vn 0.8819586 0.13560648 0.45139793
vn 0.89271259 0.1432225 0.42726067
vn 0.93114543 -0.02058566 0.36406636
vn 0.88021988 0.067962453 0.46967447
vn 0.96418184 -0.040819068 0.26208267
vn 0.86533415 0.037363604 0.49980086
vn 0.99146307 -0.077971511 -0.10450599
vn 0.9669922 -0.014852373 0.25437295
vn 0.9998821 -0.015357537 3.5831695e-07
vn 0.99969566 0.024672931 3.5520452e-07
vn 0.99972248 -0.023561083 3.8728945e-07
vn 0.93463594 0.039017022 0.35345927
vn 0.95355588 -0.26388395 -0.1452467
vn 0.97095937 -0.16898645 0.1693565
vn 0.99051028 -0.11518374 -0.07498043
vn 0.99369788 -0.10687181 -0.033808276
vn 0.87430441 -0.055774022 -0.48216292
vn 0.86792433 0.034338225 -0.49550819
vn 0.88870966 -0.27820456 -0.36441383
vn 0.80604577 -0.08241386 -0.58608705
vn 0.74821079 -0.12362806 -0.65184104
vn 0.81524718 0.052004017 -0.57677358
vn 0.86971873 -0.003903602 -0.49353242
vn 0.94561732 -0.049141206 -0.32154816
vn 0.90458614 0.12026367 -0.40897498
vn 0.86501354 0.10848001 -0.48988149
vn 0.8819592 0.13560656 -0.45139673
vn 0.89271355 0.14322267 -0.42725849
vn 0.93114549 -0.020585319 -0.36406657
vn 0.86533451 0.037363581 -0.49980003
vn 0.96418184 -0.04081893 -0.2620824
vn 0.88022012 0.067962639 -0.46967411
vn 0.95672584 -0.20745857 0.20405068
vn 0.96699238 -0.014852369 -0.25437224
vn 0.97568858 0.024080426 -0.21783499
vn 0.934636 0.039017156 -0.35345915
vn 0.95355576 -0.26388389 0.14524695

# Mesh '箭' with 226 faces
g 箭
usemtl 
f  1/1/1 2/2/2 3/3/2
f  4/4/1 1/1/1 3/3/2
f  5/5/3 1/1/1 4/4/1
f  6/6/3 5/5/3 4/4/1
f  7/7/4 3/3/5 2/2/5
f  8/8/4 7/7/4 2/2/5
f  9/9/6 4/4/7 3/3/7
f  7/7/6 9/9/6 3/3/7
f  8/8/8 2/2/9 1/1/9
f  10/10/8 8/8/8 1/1/9
f  11/11/10 6/6/11 4/4/12
f  9/9/13 11/11/10 4/4/12
f  12/12/14 5/5/15 6/6/11
f  11/11/10 12/12/14 6/6/11
f  10/10/16 1/1/17 5/5/17
f  12/12/16 10/10/16 5/5/17
f  13/3/18 14/2/18 15/1/19
f  16/4/19 13/3/18 15/1/19
f  16/4/19 15/1/19 17/5/20
f  18/6/20 16/4/19 17/5/20
f  14/2/21 13/3/21 19/7/22
f  20/8/22 14/2/21 19/7/22
f  13/3/23 16/4/23 21/9/24
f  19/7/24 13/3/23 21/9/24
f  15/1/25 14/2/25 20/8/26
f  22/10/26 15/1/25 20/8/26
f  16/4/27 18/6/28 23/11/29
f  21/9/30 16/4/27 23/11/29
f  18/6/28 17/5/31 24/12/32
f  23/11/29 18/6/28 24/12/32
f  17/5/33 15/1/33 22/10/34
f  24/12/34 17/5/33 22/10/34
f  25/3/35 26/2/35 27/1/36
f  28/4/36 25/3/35 27/1/36
f  28/4/36 27/1/36 29/5/37
f  30/6/37 28/4/36 29/5/37
f  26/2/38 25/3/38 7/7/4
f  8/8/4 26/2/38 7/7/4
f  25/3/39 28/4/39 9/9/6
f  7/7/6 25/3/39 9/9/6
f  27/1/40 26/2/40 8/8/8
f  10/10/8 27/1/40 8/8/8
f  28/4/41 30/6/42 11/11/10
f  9/9/13 28/4/41 11/11/10
f  30/6/42 29/5/43 12/12/14
f  11/11/10 30/6/42 12/12/14
f  29/5/44 27/1/44 10/10/16
f  12/12/16 29/5/44 10/10/16
f  31/1/45 32/2/46 33/3/46
f  34/4/45 31/1/45 33/3/46
f  35/5/47 31/1/45 34/4/45
f  36/6/47 35/5/47 34/4/45
f  19/7/22 33/3/48 32/2/48
f  20/8/22 19/7/22 32/2/48
f  21/9/24 34/4/49 33/3/49
f  19/7/24 21/9/24 33/3/49
f  20/8/26 32/2/50 31/1/50
f  22/10/26 20/8/26 31/1/50
f  23/11/29 36/6/51 34/4/52
f  21/9/30 23/11/29 34/4/52
f  24/12/32 35/5/53 36/6/51
f  23/11/29 24/12/32 36/6/51
f  22/10/34 31/1/54 35/5/54
f  24/12/34 22/10/34 35/5/54
f  37/13/55 38/14/55 39/15/55
f  40/16/55 37/13/55 39/15/55
f  41/17/56 42/18/56 40/16/56
f  39/15/56 41/17/56 40/16/56
f  43/19/57 44/20/57 38/14/57
f  37/13/57 43/19/57 38/14/57
f  45/15/58 46/14/58 47/13/58
f  48/16/58 45/15/58 47/13/58
f  48/16/59 49/18/59 50/17/59
f  45/15/59 48/16/59 50/17/59
f  46/14/60 51/20/60 52/19/60
f  47/13/60 46/14/60 52/19/60
f  53/21/61 54/22/62 55/23/63
f  56/24/64 53/21/61 55/23/63
f  57/25/65 58/26/66 59/27/67
f  53/21/61 57/25/65 59/27/67
f  54/22/62 60/28/68 61/29/69
f  55/23/63 54/22/62 61/29/69
f  53/21/61 59/27/67 54/22/62
f  62/30/70 57/25/65 53/21/61
f  56/24/64 62/30/70 53/21/61
f  59/27/67 63/31/71 60/28/68
f  54/22/62 59/27/67 60/28/68
f  64/23/72 65/22/73 66/21/74
f  67/24/75 64/23/72 66/21/74
f  68/27/76 69/26/77 70/25/78
f  66/21/74 68/27/76 70/25/78
f  71/29/79 72/28/80 65/22/73
f  64/23/72 71/29/79 65/22/73
f  66/21/74 65/22/73 68/27/76
f  66/21/74 70/25/78 73/30/81
f  67/24/75 66/21/74 73/30/81
f  72/28/80 74/31/82 68/27/76
f  65/22/73 72/28/80 68/27/76
f  75/32/83 76/33/84 77/34/85
f  78/35/86 79/36/87 80/37/87
f  81/38/86 78/35/86 80/37/87
f  82/39/88 83/40/89 84/41/90
f  85/42/90 82/39/88 84/41/90
f  86/43/91 87/44/92 88/45/92
f  89/46/91 86/43/91 88/45/92
f  87/44/92 78/47/86 81/48/86
f  88/45/92 87/44/92 81/48/86
f  84/41/90 86/43/91 89/46/91
f  85/42/90 84/41/90 89/46/91
f  82/39/88 90/49/93 83/40/89
f  91/50/94 90/49/93 92/51/95
f  93/52/96 91/50/94 92/51/95
f  91/50/94 93/52/96 94/53/97
f  90/49/93 91/50/94 83/40/89
f  90/49/93 95/54/98 92/51/95
f  96/55/99 97/56/100 98/57/101
f  99/58/99 96/55/99 98/57/101
f  79/59/87 96/55/99 99/58/99
f  80/60/87 79/59/87 99/58/99
f  97/56/100 100/61/102 77/34/85
f  101/62/103 102/63/104 103/64/105
f  75/32/106 101/62/103 103/64/105
f  103/64/105 102/63/104 104/65/107
f  100/61/102 75/32/83 77/34/85
f  76/33/84 105/66/108 77/34/85
f  90/49/93 106/67/109 95/54/98
f  90/49/93 82/39/88 106/67/109
f  98/57/101 97/56/100 77/34/85
f  105/66/108 98/57/101 77/34/85
f  100/61/110 101/62/103 75/32/106
f  107/32/111 108/34/112 109/33/113
f  110/37/114 79/36/114 78/35/115
f  111/38/115 110/37/114 78/35/115
f  84/41/116 83/40/117 112/39/118
f  113/42/116 84/41/116 112/39/118
f  114/45/119 87/44/119 86/43/120
f  115/46/120 114/45/119 86/43/120
f  111/48/115 78/47/115 87/44/119
f  114/45/119 111/48/115 87/44/119
f  115/46/120 86/43/120 84/41/116
f  113/42/116 115/46/120 84/41/116
f  112/39/118 83/40/117 116/49/121
f  117/51/122 116/49/121 91/50/123
f  118/52/124 117/51/122 91/50/123
f  91/50/123 94/53/125 118/52/124
f  116/49/121 83/40/117 91/50/123
f  116/49/121 117/51/122 119/54/126
f  120/57/127 97/56/128 96/55/129
f  121/58/129 120/57/127 96/55/129
f  121/58/129 96/55/129 79/59/114
f  110/60/114 121/58/129 79/59/114
f  97/56/128 108/34/112 100/61/110
f  122/64/130 102/63/104 101/62/103
f  107/32/111 122/64/130 101/62/103
f  122/64/130 104/65/107 102/63/104
f  100/61/110 108/34/112 107/32/111
f  109/33/113 108/34/112 123/66/131
f  116/49/121 119/54/126 124/67/132
f  116/49/121 124/67/132 112/39/118
f  108/34/112 97/56/128 120/57/127
f  123/66/131 108/34/112 120/57/127
f  100/61/110 107/32/111 101/62/103
f  75/32/133 125/34/134 76/33/135
f  80/37/136 126/36/136 127/35/137
f  81/38/137 80/37/136 127/35/137
f  128/41/138 129/40/139 82/39/140
f  85/42/138 128/41/138 82/39/140
f  88/45/141 130/44/141 131/43/142
f  89/46/142 88/45/141 131/43/142
f  81/48/137 127/47/137 130/44/141
f  88/45/141 81/48/137 130/44/141
f  89/46/142 131/43/142 128/41/138
f  85/42/138 89/46/142 128/41/138
f  82/39/140 129/40/139 132/49/143
f  92/51/144 132/49/143 133/50/145
f  93/52/146 92/51/144 133/50/145
f  133/50/145 94/53/147 93/52/146
f  132/49/143 129/40/139 133/50/145
f  132/49/143 92/51/144 95/54/148
f  98/57/149 134/56/150 135/55/151
f  99/58/151 98/57/149 135/55/151
f  99/58/151 135/55/151 126/59/136
f  80/60/136 99/58/151 126/59/136
f  134/56/150 125/34/134 136/61/152
f  103/64/153 137/63/154 138/62/155
f  75/32/133 103/64/153 138/62/155
f  103/64/153 104/65/156 137/63/154
f  136/61/152 125/34/134 75/32/133
f  76/33/135 125/34/134 105/66/157
f  132/49/143 95/54/148 106/67/158
f  132/49/143 106/67/158 82/39/140
f  125/34/134 134/56/150 98/57/149
f  105/66/157 125/34/134 98/57/149
f  136/61/152 75/32/133 138/62/155
f  107/32/159 109/33/160 139/34/161
f  127/35/162 126/36/163 110/37/163
f  111/38/162 127/35/162 110/37/163
f  112/39/164 129/40/165 128/41/166
f  113/42/166 112/39/164 128/41/166
f  131/43/167 130/44/168 114/45/168
f  115/46/167 131/43/167 114/45/168
f  130/44/168 127/47/162 111/48/162
f  114/45/168 130/44/168 111/48/162
f  128/41/166 131/43/167 115/46/167
f  113/42/166 128/41/166 115/46/167
f  112/39/164 140/49/169 129/40/165
f  133/50/170 140/49/169 117/51/171
f  118/52/172 133/50/170 117/51/171
f  133/50/170 118/52/172 94/53/173
f  140/49/169 133/50/170 129/40/165
f  140/49/169 119/54/174 117/51/171
f  135/55/175 134/56/176 120/57/177
f  121/58/175 135/55/175 120/57/177
f  126/59/163 135/55/175 121/58/175
f  110/60/163 126/59/163 121/58/175
f  134/56/176 136/61/178 139/34/161
f  138/62/155 137/63/154 122/64/179
f  107/32/180 138/62/155 122/64/179
f  122/64/179 137/63/154 104/65/156
f  136/61/178 107/32/159 139/34/161
f  109/33/160 123/66/181 139/34/161
f  140/49/169 124/67/182 119/54/174
f  140/49/169 112/39/164 124/67/182
f  120/57/177 134/56/176 139/34/161
f  123/66/181 120/57/177 139/34/161
f  136/61/152 138/62/155 107/32/180

