mtllib Legoshi_Claws_02.mtl
g g0
v 0.913795 1.40382 0.0137181
v 0.924281 1.38692 0.0217646
v 0.91654 1.4014 0.0195784
v 0.915959 1.4087 0.023958
v 0.908546 1.42128 0.0234057
v 0.915959 1.4087 0.023958
v 0.91654 1.4014 0.0195784
v 0.913795 1.40382 0.0137181
v 0.907137 1.41927 0.0136314
v 0.909236 1.42286 0.018436
v 0.813556 1.37387 0.0710997
v 0.828297 1.36856 0.0712322
v 0.824524 1.39406 0.0782534
v 0.820661 1.38193 0.0781203
v 0.851908 1.37142 0.0684178
v 0.837985 1.38213 0.0744297
v 0.833544 1.37509 0.0750334
v 0.851908 1.37142 0.0684178
v 0.833544 1.37509 0.0750334
v 0.828297 1.36856 0.0712322
v 0.812433 1.40643 0.0781036
v 0.824524 1.39406 0.0782534
v 0.800671 1.38147 0.065845
v 0.813556 1.37387 0.0710997
v 0.820661 1.38193 0.0781203
v 0.796609 1.39612 0.0767586
v 0.897286 1.3907 -0.00521248
v 0.909057 1.37477 0.00194495
v 0.900963 1.38918 0.000749545
v 0.900222 1.39727 0.00409742
v 0.891857 1.40469 -0.00777328
v 0.897286 1.3907 -0.00521248
v 0.900963 1.38918 0.000749545
v 0.894936 1.41007 -0.00280843
v 0.894288 1.4095 0.00224708
v 0.900222 1.39727 0.00409742
v 0.909733 1.40493 0.0398653
v 0.919827 1.38747 0.0463744
v 0.913756 1.40223 0.0463551
v 0.912127 1.40975 0.0515011
v 0.905973 1.42242 0.0507545
v 0.912127 1.40975 0.0515011
v 0.913756 1.40223 0.0463551
v 0.909733 1.40493 0.0398653
v 0.904552 1.42043 0.0397824
v 0.906845 1.42396 0.0453288
v 0.870334 1.39109 -0.027507
v 0.879763 1.37663 -0.0176922
v 0.875738 1.39146 -0.0207918
v 0.872801 1.3969 -0.0173824
v 0.868032 1.40854 -0.0197757
v 0.872801 1.3969 -0.0173824
v 0.875738 1.39146 -0.0207918
v 0.870334 1.39109 -0.027507
v 0.865625 1.40445 -0.0308159
v 0.869656 1.40879 -0.0249305
vn 0.84398 0.396809 -0.360888
vn 0.872242 0.431715 -0.229818
vn 0.84398 0.396809 -0.360888
vn 0.84398 0.396809 -0.360888
vn 0.84398 0.396809 -0.360888
vn 0.799517 0.354285 -0.48503
vn 0.916825 0.375612 -0.135454
vn 0.82374 0.497327 0.272247
vn 0.909029 0.414372 -0.0443032
vn 0.909029 0.414372 -0.0443032
vn 0.898924 0.288322 -0.329859
vn 0.893869 0.369638 -0.253704
vn 0.893869 0.369638 -0.253704
vn 0.898924 0.288322 -0.329859
vn 0.841017 0.311076 -0.442632
vn 0.841017 0.311076 -0.442632
vn 0.755063 0.322295 -0.570969
vn 0.858624 0.302349 -0.413945
vn -0.122287 -0.508757 0.852181
vn 0.0453702 -0.297498 0.953644
vn -0.200821 -0.536759 0.819488
vn -0.122287 -0.508757 0.852181
vn 0.165463 -0.22097 0.961142
vn 0.0453702 -0.297498 0.953644
vn 0.244693 -0.081268 0.966189
vn 0.208571 -0.0771402 0.97496
vn 0.0453702 -0.297498 0.953644
vn 0.244693 -0.081268 0.966189
vn 0.0453702 -0.297498 0.953644
vn 0.165463 -0.22097 0.961142
vn 0.315531 -0.11836 0.941505
vn 0.244693 -0.081268 0.966189
vn 0.165463 -0.22097 0.961142
vn 0.165756 -0.592151 0.788595
vn 0.165756 -0.592151 0.788595
vn 0.165756 -0.592151 0.788595
vn 0.165756 -0.592151 0.788595
vn 0.165756 -0.592151 0.788595
vn 0.165756 -0.592151 0.788595
vn -0.0548341 -0.018666 0.998321
vn -0.0566061 -0.0432566 0.997459
vn -0.145705 -0.168239 0.974918
vn -0.145705 -0.168239 0.974918
vn -0.190663 -0.231647 0.953933
vn -0.0548341 -0.018666 0.998321
vn -0.454364 -0.528464 0.717133
vn -0.577105 -0.584596 0.57026
vn -0.454364 -0.528464 0.717133
vn -0.454364 -0.528464 0.717133
vn -0.190663 -0.231647 0.953933
vn -0.270008 -0.289696 0.918244
vn 0.758856 0.382446 -0.527136
vn 0.815026 0.42505 -0.393784
vn 0.758856 0.382446 -0.527136
vn 0.758856 0.382446 -0.527136
vn 0.758856 0.382446 -0.527136
vn 0.685421 0.33114 -0.648495
vn 0.804729 0.16834 -0.569274
vn 0.743871 0.170503 -0.646208
vn 0.853076 0.185289 -0.487779
vn 0.902468 0.264924 -0.339657
vn 0.895976 0.190119 -0.401351
vn 0.804729 0.16834 -0.569274
vn 0.935535 0.344737 -0.0770146
vn 0.895976 0.190119 -0.401351
vn 0.902468 0.264924 -0.339657
vn 0.930866 0.290003 -0.222232
vn 0.877604 0.450602 0.163614
vn 0.935535 0.344737 -0.0770146
vn 0.876437 0.360167 -0.319591
vn 0.854335 0.35099 -0.383298
vn 0.876437 0.360167 -0.319591
vn 0.876437 0.360167 -0.319591
vn 0.876437 0.360167 -0.319591
vn 0.89448 0.367675 -0.254404
vn 0.93336 0.343377 -0.104552
vn 0.861846 0.434135 0.262199
vn 0.925413 0.37299 0.0669965
vn 0.925413 0.37299 0.0669965
vn 0.917445 0.278261 -0.284369
vn 0.919483 0.330317 -0.213172
vn 0.919483 0.330317 -0.213172
vn 0.917445 0.278261 -0.284369
vn 0.842236 0.26291 -0.470655
vn 0.842236 0.26291 -0.470655
vn 0.816746 0.270274 -0.509783
vn 0.889678 0.277472 -0.362604
vn 0.774519 0.0790699 -0.627589
vn 0.774519 0.0790699 -0.627589
vn 0.774519 0.0790699 -0.627589
vn 0.906312 0.30678 0.290662
vn 0.906312 0.30678 0.290662
vn 0.906312 0.30678 0.290662
vn 0.887197 0.390539 0.245686
vn 0.862255 0.41357 0.292363
vn 0.887197 0.390539 0.245686
vn 0.887197 0.390539 0.245686
vn 0.909183 0.366206 0.198192
vn 0.887197 0.390539 0.245686
vn 0.772866 0.120248 -0.623072
vn 0.770149 0.120622 -0.626356
vn 0.772866 0.120248 -0.623072
vn 0.772866 0.120248 -0.623072
vn 0.775569 0.119872 -0.619777
vn 0.772866 0.120248 -0.623072
vt 0.293168 0.218867
vt 0.359417 0.416604
vt 0.295729 0.379175
vt 0.293168 0.218867
vt 0.295729 0.379175
vt 0.238756 0.441554
vt 0.281675 0.591625
vt 0.225594 0.577256
vt 0.238756 0.441554
vt 0.238756 0.441554
vt 0.295729 0.379175
vt 0.281675 0.591625
vt 0.281675 0.591625
vt 0.295729 0.379175
vt 0.359417 0.416604
vt 0.359417 0.416604
vt 0.353634 0.57457
vt 0.281675 0.591625
vt 0.761648 0.737908
vt 0.695499 0.628624
vt 0.794543 0.614984
vt 0.761648 0.737908
vt 0.694192 0.725497
vt 0.695499 0.628624
vt 0.629424 0.713803
vt 0.637492 0.619779
vt 0.695499 0.628624
vt 0.629424 0.713803
vt 0.695499 0.628624
vt 0.694192 0.725497
vt 0.670423 0.823117
vt 0.629424 0.713803
vt 0.694192 0.725497
vt 0.670423 0.823117
vt 0.694192 0.725497
vt 0.761648 0.737908
vt 0.670423 0.823117
vt 0.694192 0.725497
vt 0.761648 0.737908
vt 0.637492 0.619779
vt 0.62734 0.515867
vt 0.724999 0.458235
vt 0.724999 0.458235
vt 0.695499 0.628624
vt 0.637492 0.619779
vt 0.724999 0.458235
vt 0.834672 0.513506
vt 0.794543 0.614984
vt 0.794543 0.614984
vt 0.695499 0.628624
vt 0.724999 0.458235
vt 0.29338 0.218878
vt 0.359486 0.416584
vt 0.295949 0.379158
vt 0.29338 0.218878
vt 0.295949 0.379158
vt 0.238695 0.441601
vt 0.359486 0.416584
vt 0.353627 0.574633
vt 0.281658 0.591614
vt 0.281658 0.591614
vt 0.295949 0.379158
vt 0.359486 0.416584
vt 0.238695 0.441601
vt 0.295949 0.379158
vt 0.281658 0.591614
vt 0.281658 0.591614
vt 0.225535 0.577226
vt 0.238695 0.441601
vt 0.293121 0.218887
vt 0.359364 0.416683
vt 0.29606 0.379328
vt 0.293121 0.218887
vt 0.29606 0.379328
vt 0.23867 0.441619
vt 0.281698 0.59162
vt 0.225643 0.577271
vt 0.23867 0.441619
vt 0.23867 0.441619
vt 0.29606 0.379328
vt 0.281698 0.59162
vt 0.281698 0.59162
vt 0.29606 0.379328
vt 0.359364 0.416683
vt 0.359364 0.416683
vt 0.353561 0.574608
vt 0.281698 0.59162
vt 0.292953 0.219275
vt 0.356063 0.410079
vt 0.296024 0.378747
vt 0.292953 0.219275
vt 0.296024 0.378747
vt 0.238705 0.441595
vt 0.281671 0.591591
vt 0.225502 0.577162
vt 0.238705 0.441595
vt 0.238705 0.441595
vt 0.296024 0.378747
vt 0.281671 0.591591
vt 0.281671 0.591591
vt 0.296024 0.378747
vt 0.372476 0.418787
vt 0.372476 0.418787
vt 0.349106 0.570977
vt 0.281671 0.591591
usemtl acmat_0
f 2/1/1 1/2/2 3/3/3
f 2/4/4 3/5/5 4/6/6
f 10/7/7 5/8/8 6/9/9
f 6/10/10 7/11/11 10/12/12
f 10/13/13 7/14/14 8/15/15
f 8/16/16 9/17/17 10/18/18
f 12/19/19 14/20/20 11/21/21
f 12/22/22 17/23/23 14/24/24
f 16/25/25 13/26/26 14/27/27
f 16/28/28 14/29/29 17/30/30
f 15/31/31 16/32/32 17/33/33
f 18/34/34 19/35/35 20/36/36
f 18/37/37 19/38/38 20/39/39
f 22/40/40 21/41/41 26/42/42
f 26/43/43 25/44/44 22/45/45
f 26/46/46 23/47/47 24/48/48
f 24/49/49 25/50/50 26/51/51
f 28/52/52 27/53/53 29/54/54
f 28/55/55 29/56/56 30/57/57
f 32/58/58 31/59/59 34/60/60
f 34/61/61 33/62/62 32/63/63
f 36/64/64 33/65/65 34/66/66
f 34/67/67 35/68/68 36/69/69
f 38/70/70 37/71/71 39/72/72
f 38/73/73 39/74/74 40/75/75
f 46/76/76 41/77/77 42/78/78
f 42/79/79 43/80/80 46/81/81
f 46/82/82 43/83/83 44/84/84
f 44/85/85 45/86/86 46/87/87
f 48/88/88 47/89/89 49/90/90
f 48/91/91 49/92/92 50/93/93
f 56/94/94 51/95/95 52/96/96
f 52/97/97 53/98/98 56/99/99
f 56/100/100 53/101/101 54/102/102
f 54/103/103 55/104/104 56/105/105
v -0.913795 1.40382 0.0137181
v -0.91654 1.4014 0.0195784
v -0.924281 1.38692 0.0217646
v -0.915959 1.4087 0.023958
v -0.908546 1.42128 0.0234057
v -0.915959 1.4087 0.023958
v -0.91654 1.4014 0.0195784
v -0.907137 1.41927 0.0136314
v -0.913795 1.40382 0.0137181
v -0.909236 1.42286 0.018436
v -0.813556 1.37387 0.0710997
v -0.828297 1.36856 0.0712322
v -0.824524 1.39406 0.0782534
v -0.820661 1.38193 0.0781203
v -0.837985 1.38213 0.0744297
v -0.851908 1.37142 0.0684178
v -0.833544 1.37509 0.0750334
v -0.833544 1.37509 0.0750334
v -0.851908 1.37142 0.0684178
v -0.828297 1.36856 0.0712322
v -0.812433 1.40643 0.0781036
v -0.824524 1.39406 0.0782534
v -0.800671 1.38147 0.065845
v -0.820661 1.38193 0.0781203
v -0.813556 1.37387 0.0710997
v -0.796609 1.39612 0.0767586
v -0.897286 1.3907 -0.00521248
v -0.900963 1.38918 0.000749545
v -0.909057 1.37477 0.00194495
v -0.900222 1.39727 0.00409742
v -0.891857 1.40469 -0.00777328
v -0.897286 1.3907 -0.00521248
v -0.900963 1.38918 0.000749545
v -0.894288 1.4095 0.00224708
v -0.894936 1.41007 -0.00280843
v -0.900222 1.39727 0.00409742
v -0.909733 1.40493 0.0398653
v -0.913756 1.40223 0.0463551
v -0.919827 1.38747 0.0463744
v -0.912127 1.40975 0.0515011
v -0.905973 1.42242 0.0507545
v -0.912127 1.40975 0.0515011
v -0.913756 1.40223 0.0463551
v -0.904552 1.42043 0.0397824
v -0.909733 1.40493 0.0398653
v -0.906845 1.42396 0.0453288
v -0.870334 1.39109 -0.027507
v -0.875738 1.39146 -0.0207918
v -0.879763 1.37663 -0.0176922
v -0.872801 1.3969 -0.0173824
v -0.868032 1.40854 -0.0197757
v -0.872801 1.3969 -0.0173824
v -0.875738 1.39146 -0.0207918
v -0.865625 1.40445 -0.0308159
v -0.870334 1.39109 -0.027507
v -0.869656 1.40879 -0.0249305
vn -0.872242 0.431715 -0.229818
vn -0.84398 0.396809 -0.360888
vn -0.84398 0.396809 -0.360888
vn -0.84398 0.396809 -0.360888
vn -0.84398 0.396809 -0.360888
vn -0.799517 0.354285 -0.48503
vn -0.82374 0.497327 0.272247
vn -0.916825 0.375612 -0.135454
vn -0.909029 0.414372 -0.0443032
vn -0.898924 0.288322 -0.329859
vn -0.909029 0.414372 -0.0443032
vn -0.893869 0.369638 -0.253704
vn -0.898924 0.288322 -0.329859
vn -0.893869 0.369638 -0.253704
vn -0.841017 0.311076 -0.442632
vn -0.755063 0.322295 -0.570969
vn -0.841017 0.311076 -0.442632
vn -0.858624 0.302349 -0.413945
vn -0.0453702 -0.297498 0.953644
vn 0.122287 -0.508757 0.852181
vn 0.200821 -0.536759 0.819488
vn -0.165463 -0.22097 0.961142
vn 0.122287 -0.508757 0.852181
vn -0.0453702 -0.297498 0.953644
vn -0.208571 -0.0771402 0.97496
vn -0.244693 -0.081268 0.966189
vn -0.0453702 -0.297498 0.953644
vn -0.0453702 -0.297498 0.953644
vn -0.244693 -0.081268 0.966189
vn -0.165463 -0.22097 0.961142
vn -0.244693 -0.081268 0.966189
vn -0.315531 -0.11836 0.941505
vn -0.165463 -0.22097 0.961142
vn -0.165756 -0.592151 0.788595
vn -0.165756 -0.592151 0.788595
vn -0.165756 -0.592151 0.788595
vn -0.165756 -0.592151 0.788595
vn -0.165756 -0.592151 0.788595
vn -0.165756 -0.592151 0.788595
vn 0.0566061 -0.0432566 0.997459
vn 0.0548341 -0.018666 0.998321
vn 0.145705 -0.168239 0.974918
vn 0.190663 -0.231647 0.953933
vn 0.145705 -0.168239 0.974918
vn 0.0548341 -0.018666 0.998321
vn 0.577105 -0.584596 0.57026
vn 0.454364 -0.528464 0.717133
vn 0.454364 -0.528464 0.717133
vn 0.190663 -0.231647 0.953933
vn 0.454364 -0.528464 0.717133
vn 0.270008 -0.289696 0.918244
vn -0.815026 0.42505 -0.393784
vn -0.758856 0.382446 -0.527136
vn -0.758856 0.382446 -0.527136
vn -0.758856 0.382446 -0.527136
vn -0.758856 0.382446 -0.527136
vn -0.685421 0.33114 -0.648495
vn -0.743871 0.170503 -0.646208
vn -0.804729 0.16834 -0.569274
vn -0.853076 0.185289 -0.487779
vn -0.895976 0.190119 -0.401351
vn -0.902468 0.264924 -0.339657
vn -0.804729 0.16834 -0.569274
vn -0.895976 0.190119 -0.401351
vn -0.935535 0.344737 -0.0770146
vn -0.902468 0.264924 -0.339657
vn -0.877604 0.450602 0.163614
vn -0.930866 0.290003 -0.222232
vn -0.935535 0.344737 -0.0770146
vn -0.854335 0.35099 -0.383298
vn -0.876437 0.360167 -0.319591
vn -0.876437 0.360167 -0.319591
vn -0.876437 0.360167 -0.319591
vn -0.876437 0.360167 -0.319591
vn -0.89448 0.367675 -0.254404
vn -0.861846 0.434135 0.262199
vn -0.93336 0.343377 -0.104552
vn -0.925413 0.37299 0.0669965
vn -0.917445 0.278261 -0.284369
vn -0.925413 0.37299 0.0669965
vn -0.919483 0.330317 -0.213172
vn -0.917445 0.278261 -0.284369
vn -0.919483 0.330317 -0.213172
vn -0.842236 0.26291 -0.470655
vn -0.816746 0.270274 -0.509783
vn -0.842236 0.26291 -0.470655
vn -0.889678 0.277472 -0.362604
vn -0.774519 0.0790699 -0.627589
vn -0.774519 0.0790699 -0.627589
vn -0.774519 0.0790699 -0.627589
vn -0.906312 0.30678 0.290662
vn -0.906312 0.30678 0.290662
vn -0.906312 0.30678 0.290662
vn -0.862255 0.41357 0.292363
vn -0.887197 0.390539 0.245686
vn -0.887197 0.390539 0.245686
vn -0.909183 0.366206 0.198192
vn -0.887197 0.390539 0.245686
vn -0.887197 0.390539 0.245686
vn -0.770149 0.120622 -0.626356
vn -0.772866 0.120248 -0.623072
vn -0.772866 0.120248 -0.623072
vn -0.775569 0.119872 -0.619777
vn -0.772866 0.120248 -0.623072
vn -0.772866 0.120248 -0.623072
vt 0.359417 0.416604
vt 0.293168 0.218867
vt 0.295729 0.379175
vt 0.295729 0.379175
vt 0.293168 0.218867
vt 0.238756 0.441554
vt 0.225594 0.577256
vt 0.281675 0.591625
vt 0.238756 0.441554
vt 0.295729 0.379175
vt 0.238756 0.441554
vt 0.281675 0.591625
vt 0.295729 0.379175
vt 0.281675 0.591625
vt 0.359417 0.416604
vt 0.353634 0.57457
vt 0.359417 0.416604
vt 0.281675 0.591625
vt 0.695499 0.628624
vt 0.761648 0.737908
vt 0.794543 0.614984
vt 0.694192 0.725497
vt 0.761648 0.737908
vt 0.695499 0.628624
vt 0.637492 0.619779
vt 0.629424 0.713803
vt 0.695499 0.628624
vt 0.695499 0.628624
vt 0.629424 0.713803
vt 0.694192 0.725497
vt 0.629424 0.713803
vt 0.670423 0.823117
vt 0.694192 0.725497
vt 0.694192 0.725497
vt 0.670423 0.823117
vt 0.761648 0.737908
vt 0.694192 0.725497
vt 0.670423 0.823117
vt 0.761648 0.737908
vt 0.62734 0.515867
vt 0.637492 0.619779
vt 0.724999 0.458235
vt 0.695499 0.628624
vt 0.724999 0.458235
vt 0.637492 0.619779
vt 0.834672 0.513506
vt 0.724999 0.458235
vt 0.794543 0.614984
vt 0.695499 0.628624
vt 0.794543 0.614984
vt 0.724999 0.458235
vt 0.359486 0.416584
vt 0.29338 0.218878
vt 0.295949 0.379158
vt 0.295949 0.379158
vt 0.29338 0.218878
vt 0.238695 0.441601
vt 0.353627 0.574633
vt 0.359486 0.416584
vt 0.281658 0.591614
vt 0.295949 0.379158
vt 0.281658 0.591614
vt 0.359486 0.416584
vt 0.295949 0.379158
vt 0.238695 0.441601
vt 0.281658 0.591614
vt 0.225535 0.577226
vt 0.281658 0.591614
vt 0.238695 0.441601
vt 0.359364 0.416683
vt 0.293121 0.218887
vt 0.29606 0.379328
vt 0.29606 0.379328
vt 0.293121 0.218887
vt 0.23867 0.441619
vt 0.225643 0.577271
vt 0.281698 0.59162
vt 0.23867 0.441619
vt 0.29606 0.379328
vt 0.23867 0.441619
vt 0.281698 0.59162
vt 0.29606 0.379328
vt 0.281698 0.59162
vt 0.359364 0.416683
vt 0.353561 0.574608
vt 0.359364 0.416683
vt 0.281698 0.59162
vt 0.356063 0.410079
vt 0.292953 0.219275
vt 0.296024 0.378747
vt 0.296024 0.378747
vt 0.292953 0.219275
vt 0.238705 0.441595
vt 0.225502 0.577162
vt 0.281671 0.591591
vt 0.238705 0.441595
vt 0.296024 0.378747
vt 0.238705 0.441595
vt 0.281671 0.591591
vt 0.296024 0.378747
vt 0.281671 0.591591
vt 0.372476 0.418787
vt 0.349106 0.570977
vt 0.372476 0.418787
vt 0.281671 0.591591
f 57/106/106 59/107/107 58/108/108
f 58/109/109 59/110/110 60/111/111
f 61/112/112 66/113/113 62/114/114
f 63/115/115 62/116/116 66/117/117
f 63/118/118 66/119/119 65/120/120
f 64/121/121 65/122/122 66/123/123
f 70/124/124 68/125/125 67/126/126
f 73/127/127 68/128/128 70/129/129
f 69/130/130 71/131/131 70/132/132
f 70/133/133 71/134/134 73/135/135
f 71/136/136 72/137/137 73/138/138
f 74/139/139 75/140/140 76/141/141
f 74/142/142 75/143/143 76/144/144
f 77/145/145 78/146/146 82/147/147
f 80/148/148 82/149/149 78/150/150
f 79/151/151 82/152/152 81/153/153
f 80/154/154 81/155/155 82/156/156
f 83/157/157 85/158/158 84/159/159
f 84/160/160 85/161/161 86/162/162
f 87/163/163 88/164/164 91/165/165
f 89/166/166 91/167/167 88/168/168
f 89/169/169 92/170/170 91/171/171
f 90/172/172 91/173/173 92/174/174
f 93/175/175 95/176/176 94/177/177
f 94/178/178 95/179/179 96/180/180
f 97/181/181 102/182/182 98/183/183
f 99/184/184 98/185/185 102/186/186
f 99/187/187 102/188/188 101/189/189
f 100/190/190 101/191/191 102/192/192
f 103/193/193 105/194/194 104/195/195
f 104/196/196 105/197/197 106/198/198
f 107/199/199 112/200/200 108/201/201
f 109/202/202 108/203/203 112/204/204
f 109/205/205 112/206/206 111/207/207
f 110/208/208 111/209/209 112/210/210
